<svg xmlns="http://www.w3.org/2000/svg" xmlns:xlink="http://www.w3.org/1999/xlink" width="145" zoomAndPan="magnify" viewBox="0 0 150 74.999997" height="80" preserveAspectRatio="xMidYMid meet" version="1.0"><defs><g/><clipPath id="e8ffadb719"><path d="M 1.332031 10.117188 L 53.082031 10.117188 L 53.082031 61.867188 L 1.332031 61.867188 Z M 1.332031 10.117188 " clip-rule="nonzero"/></clipPath></defs><g clip-path="url(#e8ffadb719)"><path fill="#004aad" d="M 17.695312 45.667969 L 17.695312 53.847656 L 25.878906 53.847656 L 25.878906 45.667969 L 37.527344 45.667969 C 39.625 45.667969 41.453125 44.816406 42.832031 43.445312 C 44.203125 42.074219 45.054688 40.238281 45.054688 38.140625 L 45.054688 25.828125 C 45.054688 23.730469 44.203125 21.902344 42.832031 20.519531 C 41.464844 19.148438 39.625 18.296875 37.527344 18.296875 L 25.222656 18.296875 C 23.128906 18.296875 21.300781 19.148438 19.917969 20.519531 C 18.539062 21.890625 17.695312 23.730469 17.695312 25.828125 L 17.695312 37.476562 L 1.332031 37.476562 L 1.332031 45.65625 L 17.695312 45.65625 Z M 9.515625 37.484375 L 9.515625 25.828125 C 9.515625 21.507812 11.28125 17.582031 14.09375 14.695312 C 16.980469 11.882812 20.90625 10.117188 25.222656 10.117188 L 37.527344 10.117188 C 41.847656 10.117188 45.773438 11.882812 48.660156 14.695312 C 51.484375 17.582031 53.246094 21.507812 53.246094 25.828125 L 53.246094 38.128906 C 53.246094 42.449219 51.484375 46.375 48.667969 49.261719 C 45.792969 52.074219 41.859375 53.839844 37.539062 53.839844 L 25.878906 53.839844 L 25.878906 62.03125 L 17.695312 62.03125 L 17.695312 53.847656 L 9.515625 53.847656 Z M 33.875 26.480469 L 28.898438 26.480469 C 28.109375 26.480469 27.332031 26.8125 26.800781 27.394531 C 26.210938 27.914062 25.890625 28.703125 25.890625 29.492188 L 25.890625 37.476562 L 33.875 37.476562 C 34.664062 37.476562 35.441406 37.144531 35.96875 36.5625 C 36.5625 36.042969 36.882812 35.253906 36.882812 34.464844 L 36.882812 29.492188 C 36.882812 28.703125 36.550781 27.921875 35.96875 27.394531 C 35.441406 26.8125 34.652344 26.480469 33.875 26.480469 Z M 33.875 26.480469 " fill-opacity="1" fill-rule="nonzero"/></g><g fill="#002e5d" fill-opacity="1"><g transform="translate(61.809343, 42.713036)"><g><path d="M 1.765625 0 L 1.765625 -14.703125 L 7.515625 -14.703125 C 8.703125 -14.703125 9.726562 -14.484375 10.59375 -14.046875 C 11.46875 -13.609375 12.144531 -12.988281 12.625 -12.1875 C 13.113281 -11.394531 13.359375 -10.460938 13.359375 -9.390625 C 13.359375 -8.328125 13.113281 -7.394531 12.625 -6.59375 C 12.144531 -5.789062 11.46875 -5.171875 10.59375 -4.734375 C 9.726562 -4.304688 8.703125 -4.09375 7.515625 -4.09375 L 5.109375 -4.09375 L 5.109375 0 Z M 5.078125 -6.96875 L 7.25 -6.96875 C 8.113281 -6.96875 8.78125 -7.175781 9.25 -7.59375 C 9.71875 -8.007812 9.953125 -8.597656 9.953125 -9.359375 C 9.953125 -10.128906 9.71875 -10.722656 9.25 -11.140625 C 8.78125 -11.566406 8.113281 -11.78125 7.25 -11.78125 L 5.078125 -11.78125 Z M 5.078125 -6.96875 "/></g></g></g><g fill="#002e5d" fill-opacity="1"><g transform="translate(75.776205, 42.713036)"><g><path d="M 1.59375 0 L 1.59375 -11.03125 L 3.96875 -11.03125 L 4.390625 -9.5625 C 4.753906 -10.070312 5.203125 -10.441406 5.734375 -10.671875 C 6.265625 -10.910156 6.9375 -11.03125 7.75 -11.03125 L 8.953125 -11.03125 L 8.953125 -8.125 L 7.734375 -8.125 C 6.816406 -8.125 6.09375 -7.878906 5.5625 -7.390625 C 5.039062 -6.898438 4.78125 -6.0625 4.78125 -4.875 L 4.78125 0 Z M 1.59375 0 "/></g></g></g><g fill="#002e5d" fill-opacity="1"><g transform="translate(85.437496, 42.713036)"><g><path d="M 7.015625 0.296875 C 5.796875 0.296875 4.71875 0.0507812 3.78125 -0.4375 C 2.851562 -0.925781 2.125 -1.609375 1.59375 -2.484375 C 1.070312 -3.359375 0.8125 -4.367188 0.8125 -5.515625 C 0.8125 -6.671875 1.070312 -7.679688 1.59375 -8.546875 C 2.125 -9.410156 2.851562 -10.085938 3.78125 -10.578125 C 4.71875 -11.066406 5.796875 -11.3125 7.015625 -11.3125 C 8.234375 -11.3125 9.304688 -11.066406 10.234375 -10.578125 C 11.171875 -10.085938 11.894531 -9.410156 12.40625 -8.546875 C 12.925781 -7.679688 13.1875 -6.671875 13.1875 -5.515625 C 13.1875 -4.367188 12.925781 -3.359375 12.40625 -2.484375 C 11.894531 -1.609375 11.171875 -0.925781 10.234375 -0.4375 C 9.304688 0.0507812 8.234375 0.296875 7.015625 0.296875 Z M 3.96875 -5.515625 C 3.96875 -4.617188 4.25 -3.882812 4.8125 -3.3125 C 5.382812 -2.738281 6.117188 -2.453125 7.015625 -2.453125 C 7.910156 -2.453125 8.632812 -2.738281 9.1875 -3.3125 C 9.75 -3.882812 10.03125 -4.617188 10.03125 -5.515625 C 10.03125 -6.429688 9.75 -7.171875 9.1875 -7.734375 C 8.632812 -8.304688 7.910156 -8.59375 7.015625 -8.59375 C 6.117188 -8.59375 5.382812 -8.304688 4.8125 -7.734375 C 4.25 -7.171875 3.96875 -6.429688 3.96875 -5.515625 Z M 3.96875 -5.515625 "/></g></g></g><g fill="#002e5d" fill-opacity="1"><g transform="translate(99.446367, 42.713036)"><g><path d="M 6.421875 0.296875 C 5.328125 0.296875 4.359375 0.046875 3.515625 -0.453125 C 2.679688 -0.953125 2.019531 -1.640625 1.53125 -2.515625 C 1.050781 -3.390625 0.8125 -4.390625 0.8125 -5.515625 C 0.8125 -6.648438 1.050781 -7.648438 1.53125 -8.515625 C 2.019531 -9.390625 2.679688 -10.070312 3.515625 -10.5625 C 4.359375 -11.0625 5.328125 -11.3125 6.421875 -11.3125 C 7.109375 -11.3125 7.742188 -11.207031 8.328125 -11 C 8.921875 -10.800781 9.457031 -10.519531 9.9375 -10.15625 L 9.9375 -15.546875 L 13.125 -15.546875 L 13.125 0 L 10.75 0 L 10.375 -1.265625 C 9.882812 -0.773438 9.300781 -0.390625 8.625 -0.109375 C 7.957031 0.160156 7.222656 0.296875 6.421875 0.296875 Z M 3.96875 -5.515625 C 3.96875 -4.617188 4.25 -3.882812 4.8125 -3.3125 C 5.382812 -2.738281 6.117188 -2.453125 7.015625 -2.453125 C 7.910156 -2.453125 8.632812 -2.738281 9.1875 -3.3125 C 9.75 -3.882812 10.03125 -4.617188 10.03125 -5.515625 C 10.03125 -6.410156 9.75 -7.144531 9.1875 -7.71875 C 8.632812 -8.300781 7.910156 -8.59375 7.015625 -8.59375 C 6.117188 -8.59375 5.382812 -8.300781 4.8125 -7.71875 C 4.25 -7.144531 3.96875 -6.410156 3.96875 -5.515625 Z M 3.96875 -5.515625 "/></g></g></g><g fill="#002e5d" fill-opacity="1"><g transform="translate(114.169335, 42.713036)"><g><path d="M 1.59375 0 L 1.59375 -11.03125 L 4.78125 -11.03125 L 4.78125 0 Z M 1.140625 -14.59375 C 1.140625 -15.1875 1.328125 -15.664062 1.703125 -16.03125 C 2.085938 -16.40625 2.582031 -16.59375 3.1875 -16.59375 C 3.800781 -16.59375 4.296875 -16.40625 4.671875 -16.03125 C 5.054688 -15.664062 5.25 -15.1875 5.25 -14.59375 C 5.25 -14.007812 5.054688 -13.53125 4.671875 -13.15625 C 4.296875 -12.78125 3.800781 -12.59375 3.1875 -12.59375 C 2.582031 -12.59375 2.085938 -12.78125 1.703125 -13.15625 C 1.328125 -13.53125 1.140625 -14.007812 1.140625 -14.59375 Z M 1.140625 -14.59375 "/></g></g></g><g fill="#002e5d" fill-opacity="1"><g transform="translate(120.554187, 42.713036)"><g><path d="M 6.96875 4.65625 C 5.375 4.65625 4.078125 4.289062 3.078125 3.5625 C 2.078125 2.84375 1.503906 1.84375 1.359375 0.5625 L 4.46875 0.5625 C 4.582031 1.039062 4.851562 1.410156 5.28125 1.671875 C 5.707031 1.941406 6.25 2.078125 6.90625 2.078125 C 8.675781 2.078125 9.5625 1.179688 9.5625 -0.609375 L 9.5625 -1.390625 C 9.113281 -1.035156 8.597656 -0.765625 8.015625 -0.578125 C 7.429688 -0.390625 6.8125 -0.296875 6.15625 -0.296875 C 5.113281 -0.296875 4.191406 -0.53125 3.390625 -1 C 2.585938 -1.46875 1.957031 -2.117188 1.5 -2.953125 C 1.039062 -3.785156 0.8125 -4.738281 0.8125 -5.8125 C 0.8125 -6.894531 1.039062 -7.847656 1.5 -8.671875 C 1.957031 -9.492188 2.585938 -10.140625 3.390625 -10.609375 C 4.191406 -11.078125 5.113281 -11.3125 6.15625 -11.3125 C 6.9375 -11.3125 7.660156 -11.179688 8.328125 -10.921875 C 8.992188 -10.671875 9.5625 -10.300781 10.03125 -9.8125 L 10.375 -11.03125 L 12.75 -11.03125 L 12.75 -0.609375 C 12.75 0.484375 12.515625 1.425781 12.046875 2.21875 C 11.578125 3.007812 10.90625 3.613281 10.03125 4.03125 C 9.164062 4.445312 8.144531 4.65625 6.96875 4.65625 Z M 3.96875 -5.8125 C 3.96875 -4.957031 4.234375 -4.265625 4.765625 -3.734375 C 5.296875 -3.203125 5.984375 -2.9375 6.828125 -2.9375 C 7.660156 -2.9375 8.347656 -3.203125 8.890625 -3.734375 C 9.429688 -4.265625 9.703125 -4.957031 9.703125 -5.8125 C 9.703125 -6.65625 9.429688 -7.34375 8.890625 -7.875 C 8.347656 -8.40625 7.660156 -8.671875 6.828125 -8.671875 C 5.984375 -8.671875 5.296875 -8.40625 4.765625 -7.875 C 4.234375 -7.34375 3.96875 -6.65625 3.96875 -5.8125 Z M 3.96875 -5.8125 "/></g></g></g><g fill="#002e5d" fill-opacity="1"><g transform="translate(134.920106, 42.713036)"><g><path d="M 1.640625 4.203125 L 1.640625 1.453125 L 2.890625 1.453125 C 3.554688 1.453125 4.03125 1.347656 4.3125 1.140625 C 4.601562 0.941406 4.835938 0.566406 5.015625 0.015625 L 5.140625 -0.359375 L 0.1875 -11.03125 L 3.71875 -11.03125 L 6.671875 -4.203125 L 7.6875 -7.015625 L 9.15625 -11.03125 L 12.578125 -11.03125 L 7.671875 1.296875 C 7.367188 2.054688 7.03125 2.644531 6.65625 3.0625 C 6.28125 3.488281 5.8125 3.785156 5.25 3.953125 C 4.6875 4.117188 3.976562 4.203125 3.125 4.203125 Z M 1.640625 4.203125 "/></g></g></g></svg>